HIERARCHY
ROOT pelvis
{
  OFFSET 0 100 0
  CHANNELS 6 Xposition Yposition Zposition Zrotation Xrotation Yrotation
  JOINT pelvis_right_femur
  {
    OFFSET -10.78128 -3.44521 -0.5502486
    CHANNELS 3 Zrotation Xrotation Yrotation
    JOINT right_femur_tibia
    {
      OFFSET -0.8047443 -44.0398 -0.1307829
      CHANNELS 3 Zrotation Xrotation Yrotation
      JOINT right_tibia_foot
      {
        OFFSET 3.006224 -47.83518 -5
        CHANNELS 3 Zrotation Xrotation Yrotation
        End Site
        {
          OFFSET 0 -5 15
        }
      }
    }
  }
  JOINT pelvis_left_femur
  {
    OFFSET 10.78128 -3.44521 -0.5502486
    CHANNELS 3 Zrotation Xrotation Yrotation
    JOINT left_femur_tibia
    {
      OFFSET 0.8047443 -44.0398 -0.1307829
      CHANNELS 3 Zrotation Xrotation Yrotation
      JOINT left_tibia_foot
      {
        OFFSET -4.370144 -48.10324 -4.275266
        CHANNELS 3 Zrotation Xrotation Yrotation
        End Site
        {
          OFFSET 0 -5 15
        }
      }
    }
  }
  JOINT pelvis_spine1
  {
    OFFSET 0 6.468898 -3.129235
    CHANNELS 3 Zrotation Xrotation Yrotation
    JOINT spine1
    {
      OFFSET 0 23.15396 4.99043
      CHANNELS 3 Zrotation Xrotation Yrotation
      JOINT spine2
      {
        OFFSET 0 20.79997 -5.064912
        CHANNELS 3 Zrotation Xrotation Yrotation
        JOINT neck
        {
          OFFSET 0 14.38658 9.616178
          CHANNELS 3 Zrotation Xrotation Yrotation
          End Site
          {
            OFFSET 0 20 0
          }
        }
      }
      JOINT right_manubrium
      {
        OFFSET -5.722621 16.35077 3.967754
        CHANNELS 3 Zrotation Xrotation Yrotation
        JOINT right_clavicle
        {
          OFFSET -13.16364 1.694482 -4.693211
          CHANNELS 3 Zrotation Xrotation Yrotation
          JOINT right_humerus
          {
            OFFSET -28.5034 -0.3100689 -2.792744
            CHANNELS 3 Zrotation Xrotation Yrotation
            JOINT right_radius
            {
              OFFSET -25.15693 0.02248979 -1.271978
              CHANNELS 3 Zrotation Xrotation Yrotation
              End Site
              {
                OFFSET -15 0 0
              }
            }
          }
        }
      }
      JOINT left_manubrium
      {
        OFFSET 5.722621 16.35077 3.967754
        CHANNELS 3 Zrotation Xrotation Yrotation
        JOINT left_clavicle
        {
          OFFSET 13.16364 1.694482 -4.693211
          CHANNELS 3 Zrotation Xrotation Yrotation
          JOINT left_humerus
          {
            OFFSET 29.39168 -1.063119 -2.237045
            CHANNELS 3 Zrotation Xrotation Yrotation
            JOINT left_radius
            {
              OFFSET 24.59957 -0.9528479 0.9047498
              CHANNELS 3 Zrotation Xrotation Yrotation
              End Site
              {
                OFFSET 15 -0 -0
              }
            }
          }
        }
      }
    }
  }
}
MOTION
Frames: 13
Frame Time: 0.0416666666667
-0.7093376 90.0785 68.85053 1.316829 -8.302442 8.523676 6.32091 -13.91834 -6.518746 -0 7.008291 -0 -13.09572 6.902565 0.4185733 -3.157771 3.579825 -3.846485 -0 53.42735 -0 1.453055 -8.530732 12.23685 1.0545 -2.634028 4.844406 -0.3916738 15.34947 -7.190146 0.8840891 22.69363 5.438049 5.238822 -17.88812 3.810777 -1.401676 -19.38855 11.93253 93.07835 17.00408 -22.88313 -0 0 9.978593 -25.37722 12.29662 7.824623 7.657463 -30.13259 -10.18717 -88.59289 11.76129 14.65386 0 0 -21.94162 16.93286 17.31096 -7.436937
-0.145398 90.10543 74.89649 1.20874 -8.318753 7.775859 6.320905 -13.91833 -6.518748 -0 7.008302 -0 -13.09572 6.902566 0.418577 -3.157772 3.579823 -3.846488 -0 53.42734 -0 1.453054 -8.530734 12.23686 1.054498 -2.634025 4.844405 -0.3916756 15.34947 -7.190144 0.8840884 22.69363 5.438052 5.238826 -17.88812 3.810776 -1.40167 -19.38855 11.93252 93.07834 17.00409 -22.88313 -0 0 9.978596 -25.37722 12.29662 7.82462 7.657467 -30.13259 -10.18717 -88.59289 11.76129 14.65386 0 0 -21.94161 16.93286 17.31096 -7.43695
0.3403958 90.13235 80.94924 1.100441 -8.333667 7.027983 6.320901 -13.91834 -6.518751 -0 7.00831 -0 -13.09572 6.902568 0.4185806 -3.157774 3.579824 -3.846491 -0 53.42733 -0 1.453053 -8.530738 12.23686 1.054497 -2.634022 4.844404 -0.3916772 15.34947 -7.190142 0.8840877 22.69364 5.438054 5.23883 -17.88812 3.810776 -1.401665 -19.38854 11.93252 93.07834 17.0041 -22.88312 -0 0 9.978598 -25.37722 12.29662 7.824618 7.65747 -30.13259 -10.18716 -88.59289 11.76128 14.65385 0 0 -21.9416 16.93287 17.31096 -7.436961
0.7479625 90.15927 87.00775 0.9919501 -8.34718 6.280052 6.320897 -13.91834 -6.518755 -0 7.008316 -0 -13.09571 6.902571 0.418584 -3.157776 3.579828 -3.846493 -0 53.42731 -0 1.453052 -8.530743 12.23686 1.054495 -2.63402 4.844403 -0.3916785 15.34947 -7.190141 0.884087 22.69364 5.438056 5.238833 -17.88811 3.810775 -1.401661 -19.38854 11.93252 93.07833 17.00411 -22.88312 -0 0 9.978598 -25.37722 12.29662 7.824616 7.657474 -30.13259 -10.18716 -88.59289 11.76128 14.65385 0 0 -21.9416 16.93288 17.31096 -7.43697
1.077234 90.1862 93.07102 0.8832863 -8.35929 5.532073 6.320893 -13.91835 -6.518758 -0 7.00832 -0 -13.09571 6.902575 0.4185871 -3.157779 3.579834 -3.846495 -0 53.4273 -0 1.45305 -8.530749 12.23686 1.054494 -2.634018 4.844402 -0.3916794 15.34946 -7.19014 0.8840865 22.69364 5.438058 5.238835 -17.88811 3.810775 -1.401657 -19.38854 11.93252 93.07833 17.00412 -22.88312 -0 0 9.978597 -25.37722 12.29662 7.824615 7.657477 -30.13258 -10.18716 -88.59289 11.76128 14.65384 0 0 -21.9416 16.93288 17.31096 -7.436978
1.328156 90.21312 99.13804 0.7744685 -8.369995 4.784051 6.32089 -13.91836 -6.518762 -0 7.008322 -0 -13.09571 6.902579 0.4185898 -3.157781 3.579842 -3.846496 -0 53.42728 -0 1.453049 -8.530755 12.23686 1.054493 -2.634017 4.8444 -0.3916801 15.34946 -7.190139 0.884086 22.69364 5.438059 5.238836 -17.88811 3.810775 -1.401655 -19.38853 11.93252 93.07833 17.00412 -22.88312 -0 0 9.978593 -25.37722 12.29662 7.824614 7.657481 -30.13258 -10.18716 -88.59288 11.76128 14.65383 0 0 -21.94161 16.93289 17.31095 -7.436985
1.500685 90.24004 105.2078 0.6655158 -8.379294 4.03599 6.320887 -13.91837 -6.518765 -0 7.008321 -0 -13.09571 6.902584 0.418592 -3.157784 3.579853 -3.846497 -0 53.42727 -0 1.453048 -8.530763 12.23686 1.054493 -2.634016 4.844398 -0.3916803 15.34946 -7.190139 0.8840857 22.69364 5.43806 5.238837 -17.88811 3.810776 -1.401654 -19.38853 11.93252 93.07833 17.00412 -22.88312 -0 0 9.978589 -25.37722 12.29661 7.824614 7.657483 -30.13258 -10.18716 -88.59288 11.76128 14.65383 0 0 -21.94161 16.93289 17.31095 -7.436989
1.594794 90.26696 111.2793 0.556447 -8.387184 3.287897 6.320885 -13.91839 -6.518768 -0 7.008318 -0 -13.09571 6.90259 0.4185938 -3.157787 3.579864 -3.846498 -0 53.42726 -0 1.453047 -8.530771 12.23685 1.054492 -2.634015 4.844397 -0.3916802 15.34946 -7.19014 0.8840854 22.69364 5.438061 5.238837 -17.88811 3.810776 -1.401654 -19.38853 11.93252 93.07833 17.00412 -22.88313 -0 0 9.978583 -25.37722 12.29661 7.824614 7.657485 -30.13259 -10.18716 -88.59287 11.76128 14.65382 0 0 -21.94162 16.93289 17.31095 -7.436991
1.610466 90.29388 117.3515 0.4472813 -8.393664 2.539777 6.320883 -13.91841 -6.518771 -0 7.008314 -0 -13.09571 6.902596 0.418595 -3.157789 3.579876 -3.846498 -0 53.42724 -0 1.453046 -8.530779 12.23685 1.054492 -2.634015 4.844395 -0.3916799 15.34946 -7.190141 0.8840853 22.69364 5.438062 5.238837 -17.88811 3.810777 -1.401656 -19.38853 11.93252 93.07833 17.00412 -22.88313 -0 0 9.978576 -25.37722 12.29661 7.824614 7.657487 -30.13259 -10.18716 -88.59287 11.76128 14.65381 0 0 -21.94164 16.93289 17.31095 -7.436992
1.547699 90.3208 123.4233 0.3380375 -8.398734 1.791634 6.320882 -13.91842 -6.518774 -0 7.008307 -0 -13.09571 6.902601 0.4185956 -3.157792 3.579889 -3.846498 -0 53.42723 -0 1.453046 -8.530786 12.23685 1.054492 -2.634015 4.844393 -0.3916792 15.34945 -7.190142 0.8840853 22.69364 5.438062 5.238835 -17.88811 3.810778 -1.401658 -19.38852 11.93252 93.07834 17.00412 -22.88313 -0 0 9.978569 -25.37722 12.29661 7.824615 7.657488 -30.13259 -10.18716 -88.59286 11.76128 14.6538 0 0 -21.94165 16.93289 17.31095 -7.43699
1.406503 90.34772 129.4939 0.2287348 -8.402392 1.043476 6.320881 -13.91844 -6.518776 -0 7.0083 -0 -13.09571 6.902606 0.4185957 -3.157794 3.579902 -3.846497 -0 53.42722 -0 1.453045 -8.530794 12.23685 1.054492 -2.634016 4.844391 -0.3916782 15.34945 -7.190144 0.8840854 22.69364 5.438062 5.238834 -17.88812 3.810779 -1.40166 -19.38852 11.93252 93.07834 17.00412 -22.88314 -0 0 9.978561 -25.37722 12.29661 7.824616 7.657489 -30.13259 -10.18715 -88.59286 11.76128 14.65379 0 0 -21.94167 16.93289 17.31095 -7.436987
1.186902 90.37463 135.5622 0.1193921 -8.404639 0.2953064 6.320882 -13.91845 -6.518778 -0 7.008291 -0 -13.09571 6.902611 0.4185952 -3.157796 3.579914 -3.846496 -0 53.42722 -0 1.453045 -8.5308 12.23684 1.054492 -2.634017 4.84439 -0.3916771 15.34945 -7.190146 0.8840856 22.69364 5.438061 5.238831 -17.88812 3.81078 -1.401664 -19.38852 11.93252 93.07835 17.00411 -22.88315 -0 0 9.978554 -25.37722 12.2966 7.824617 7.657489 -30.1326 -10.18715 -88.59285 11.76128 14.65378 0 0 -21.94168 16.93289 17.31095 -7.436982
0.8889326 90.40155 141.6271 0.01002866 -8.405472 -0.4528687 6.320882 -13.91847 -6.518779 -0 7.008282 -0 -13.09571 6.902616 0.4185943 -3.157797 3.579926 -3.846495 -0 53.42721 -0 1.453045 -8.530806 12.23684 1.054493 -2.634019 4.844389 -0.3916758 15.34945 -7.190147 0.8840859 22.69364 5.438061 5.238829 -17.88812 3.810782 -1.401668 -19.38852 11.93252 93.07835 17.0041 -22.88315 -0 0 9.978546 -25.37722 12.2966 7.824618 7.657488 -30.1326 -10.18715 -88.59285 11.76129 14.65378 0 0 -21.9417 16.93289 17.31095 -7.436976
